<?xml version="1.0" encoding="UTF-8"?>
<!-- Generator: Adobe Illustrator 26.1.0, SVG Export Plug-In . SVG Version: 6.00 Build 0)  -->
<svg version="1.1" id="Слой_1" xmlns="http://www.w3.org/2000/svg" xmlns:xlink="http://www.w3.org/1999/xlink" x="0px" y="0px" viewBox="0 0 1439 942.4" style="enable-background:new 0 0 1439 942.4;" xml:space="preserve">
<style type="text/css">
	.st0{fill:url(#SVGID_1_);}
	.st1{fill:none;}
	.st2{fill:url(#SVGID_00000062158007283332058780000014462266489551071369_);}
	.st3{fill:#1A1B1F;}
	.st4{fill:#FFFFFF;fill-opacity:0.3;}
	.st5{fill:#FFFFFF;}
</style>
<linearGradient id="SVGID_1_" gradientUnits="userSpaceOnUse" x1="591.7167" y1="-1610.0078" x2="790.2167" y2="-907.0078" gradientTransform="matrix(1 0 0 1 0 1586.2677)">
	<stop offset="0" style="stop-color:#1A1B1F"/>
	<stop offset="1" style="stop-color:#1A1B1F;stop-opacity:0"/>
</linearGradient>
<rect x="-2" y="0" class="st0" width="1440" height="847"/>
<line class="st1" x1="-2" y1="846" x2="1438" y2="846"/>
<linearGradient id="SVGID_00000101064025204684911130000014734075756069925526_" gradientUnits="userSpaceOnUse" x1="1347.9792" y1="-1369.9513" x2="139.9789" y2="-670.9523" gradientTransform="matrix(1 0 0 1 0 1586.2677)">
	<stop offset="0" style="stop-color:#4F71E0;stop-opacity:0.8"/>
	<stop offset="1" style="stop-color:#4F71E0;stop-opacity:0"/>
</linearGradient>
<path style="fill:url(#SVGID_00000101064025204684911130000014734075756069925526_);" d="M760.5,364.1  c-41-65.9-230.8-128.3-246-247.5c-5.5-43.1,7.1-85.7,64-116.6L1439,0v162.6v392.5v270.2c0,0-94.5-64.8-215.5-16.3  s-128,143.5-264.5,132.5s-227-149.3-380.5-172s-261,119-384.5,119S-5,825.3-5,825.3V549.9c24.2-31,200-54,378.5,20.9  C740.1,724.6,801.5,430,760.5,364.1z"/>
<path class="st3" d="M170.9,73.9c37.5-17.1,80.7-10.4,118.8,5.2c33.2,13.6,56.2,41.8,73,73.5c16.1,30.3,23.8,63.7,17.7,97.5  c-6.8,37.3-21.5,74.5-52.9,95.8c-33.4,22.8-76,28.8-115.1,18.7c-39.5-10.2-70.5-38.2-92.6-72.3C96,256,76.9,213.8,86.8,171.4  C97,128,130.3,92.4,170.9,73.9z"/>
<path class="st4" d="M411,64.9c2.5-3.1,2.1-7.8-1.1-10.3c-3.1-2.5-7.8-2.1-10.3,1.1c-2.5,3.1-2.1,7.8,1.1,10.3  C403.8,68.5,408.5,68.1,411,64.9z"/>
<path class="st5" d="M464,541.9c2.5-3.1,2.1-7.8-1.1-10.3c-3.1-2.5-7.8-2.1-10.3,1.1c-2.5,3.1-2.1,7.8,1.1,10.3  C456.8,545.5,461.5,545.1,464,541.9z"/>
<path class="st5" d="M476.7,124.2c1.2-1.5,1-3.7-0.5-4.9c-1.5-1.2-3.7-1-4.9,0.5c-1.2,1.5-1,3.7,0.5,4.9  C473.2,125.9,475.5,125.7,476.7,124.2z"/>
<style xmlns="" data-source="base" class="dblt-ykjmwcnxmi"/><style xmlns="" data-source="stylesheet-processor" class="dblt-ykjmwcnxmi"/></svg>