<svg id="Layer_1" data-name="Layer 1" xmlns="http://www.w3.org/2000/svg" xmlns:xlink="http://www.w3.org/1999/xlink" viewBox="0 0 1440 783"><defs><style>.cls-1{fill:none;}.cls-2{clip-path:url(#clip-path);}.cls-12,.cls-23,.cls-26,.cls-3,.cls-5,.cls-7{fill:#939695;}.cls-19,.cls-3{opacity:0.4;}.cls-4{fill:#7f8c8d;}.cls-10,.cls-18,.cls-21,.cls-22,.cls-4{opacity:0.2;}.cls-11,.cls-25,.cls-5{opacity:0.7;}.cls-10,.cls-20,.cls-25,.cls-6{fill:#afb1b1;}.cls-17,.cls-6{opacity:0.3;}.cls-11,.cls-14,.cls-17,.cls-18,.cls-8{fill:#39a4dd;}.cls-8{opacity:0.6;}.cls-9{fill:#7f8d8b;}.cls-13,.cls-16,.cls-20,.cls-9{opacity:0.1;}.cls-12{opacity:0.5;}.cls-13,.cls-15,.cls-19,.cls-22{fill:#bdbfbe;}.cls-16,.cls-21,.cls-24{fill:#95a5a6;}.cls-23{opacity:0.05;}.cls-26{opacity:0.8;}</style><clipPath id="clip-path"><rect class="cls-1" x="-2" y="77" width="1440" height="706"/></clipPath></defs><title>triangles-bg</title><g class="cls-2"><polygon class="cls-3" points="509 706.36 636.67 629.76 509 553.16 509 706.36"/><polygon class="cls-4" points="637 782.96 509.33 706.36 637 629.76 637 782.96"/><polygon class="cls-5" points="382 782.96 509.67 706.36 382 629.76 382 782.96"/><polygon class="cls-6" points="382 629.76 509.67 553.16 382 476.56 382 629.76"/><polygon class="cls-7" points="254 859.56 381.67 782.96 254 706.36 254 859.56"/><polygon class="cls-8" points="254 706.36 381.67 629.76 254 553.16 254 706.36"/><polygon class="cls-9" points="254 399.96 381.67 323.36 254 246.76 254 399.96"/><polygon class="cls-10" points="126 476.56 253.67 399.96 126 323.36 126 476.56"/><polygon class="cls-8" points="382 860 254.02 860 382 782.96 382 860"/><polygon class="cls-11" points="382 782.96 254.33 706.36 382 629.76 382 782.96"/><polygon class="cls-12" points="382 629.76 254.33 553.16 382 476.56 382 629.76"/><polygon class="cls-13" points="382 476.56 254.33 399.96 382 323.36 382 476.56"/><polygon class="cls-14" points="126 859.54 253.67 859.56 126 782.96 126 859.54"/><polygon class="cls-11" points="126 782.96 253.67 706.36 126 629.76 126 782.96"/><polygon class="cls-7" points="126 629.76 253.67 553.16 126 476.56 126 629.76"/><polygon class="cls-8" points="254 859.56 126.33 782.96 254 706.36 254 859.56"/><polygon class="cls-15" points="254 706.36 126.33 629.76 254 553.16 254 706.36"/><polygon class="cls-13" points="254 399.96 126.33 323.36 254 246.76 254 399.96"/><polygon class="cls-6" points="254 553.16 126.33 476.56 254 399.96 254 553.16"/><polygon class="cls-16" points="509 706.36 381.33 629.76 509 553.16 509 706.36"/><polygon class="cls-17" points="-1 859.56 126.67 782.96 -1 706.36 -1 859.56"/><polygon class="cls-14" points="-1 706.36 126.67 629.76 -1 553.16 -1 706.36"/><polygon class="cls-13" points="-1 553.16 126.67 476.56 -1 399.96 -1 553.16"/><polygon class="cls-18" points="254 553.16 381.67 476.56 254 399.96 254 553.16"/><polygon class="cls-14" points="126 859.54 -1.67 859.56 126 782.96 126 859.54"/><polygon class="cls-3" points="126 782.96 -1.67 706.36 126 629.76 126 782.96"/><polygon class="cls-8" points="126 629.76 -1.67 553.16 126 476.56 126 629.76"/><polygon class="cls-19" points="126 476.56 -1.67 399.96 126 323.36 126 476.56"/><polygon class="cls-13" points="637 629.76 764.67 553.16 637 476.56 637 629.76"/><polygon class="cls-20" points="637 476.56 764.67 399.96 637 323.36 637 476.56"/><polygon class="cls-7" points="382 860 509.35 860 382 782.96 382 860"/><polygon class="cls-17" points="-1 399.96 126.67 323.36 -1 246.76 -1 399.96"/><polygon class="cls-21" points="637 782.96 764.67 706.36 637 629.76 637 782.96"/><polygon class="cls-22" points="509 553.16 636.67 476.56 509 399.96 509 553.16"/><polygon class="cls-18" points="509 706.36 381.33 629.76 509 553.16 509 706.36"/><polygon class="cls-23" points="509 399.96 381.33 323.36 509 246.76 509 399.96"/><polygon class="cls-24" points="637 860 764.69 860 637 782.96 637 860"/><polygon class="cls-25" points="509 859.56 636.67 782.96 509 706.36 509 859.56"/><polygon class="cls-25" points="764 859.56 891.67 782.96 764 706.36 764 859.56"/><polygon class="cls-13" points="764 703.56 891.67 626.96 764 550.36 764 703.56"/><polygon class="cls-26" points="509 859.56 381.33 782.96 509 706.36 509 859.56"/><polygon class="cls-8" points="637 860 509.35 860 637 782.96 637 860"/><polygon class="cls-11" points="765 859.56 637.33 782.96 765 706.36 765 859.56"/></g></svg>