<svg width="101" height="47" viewBox="0 0 101 47" xmlns="http://www.w3.org/2000/svg" xmlns:xlink="http://www.w3.org/1999/xlink"><defs><path id="a" d="M0 .28h96.786v46.096H0z"/></defs><g fill="none" fill-rule="evenodd"><g transform="translate(.836 .303)"><mask id="b" fill="white"><use xlink:href="#a"/></mask><path d="M84.157 29.755c-.167.747-2.895 7.363-3.206 8.115l-.015.032c-1.08 1.993-2.271 2.962-3.645 2.962-.19 0-.385-.02-.58-.059l-.035-.008c-2.075-.644-1.764-3.467-1.185-6.143 1.224-5.768 4.135-8.452 4.89-8.888.616-.44 1.208-.663 1.761-.663.591 0 1.108.256 1.495.739.684.855.879 2.318.52 3.913zm-20.78-6.298c.087-.587 2.476-9.607 6.605-16.528l.015-.023c.949-1.337 1.881-2.074 2.625-2.074a.96.96 0 0 1 .815.43c.446.655.325 1.949-.34 3.646-2.128 5.438-4.73 8.9-7.025 11.955-.738.982-1.435 1.91-2.066 2.84l-.85 1.25.221-1.496zm33.296 14.661c-.162-.389-.477-.585-.937-.585-.593 0-1.672.322-3.442 1.866-.822.717-2.07 1.442-3.005 1.442-.587 0-.901-.278-1.06-.512-.46-.672-.32-1.923.425-3.827.213-.64 1.168-3.045 2.179-5.591 1.008-2.54 2.151-5.418 2.265-5.834l.01-.027c.49-1.337.505-2.394.042-3.058-.354-.507-1.006-.786-1.836-.786-1.958 0-4.43 1.518-4.987 3.779l-.214.868-.426-.787c-1.346-2.486-3.214-3.801-5.402-3.801-2.124 0-4.481 1.204-6.637 3.39-3.203 3.246-5.237 7.955-5.182 11.998l.002.138-.092.1c-.152.166-3.742 4.048-6.637 4.049a2.89 2.89 0 0 1-.822-.116c-.482-.142-.855-.464-1.11-.955-1.235-2.375.731-8.317.816-8.569l.024-.073.053-.056c7.707-8.064 12.013-16.774 13.149-19.252 2.186-4.704 2.738-8.159 1.596-9.994C74.796.882 73.562.333 71.778.293a7.982 7.982 0 0 0-.463-.013c-3.977 0-6.578 2.985-7.774 4.765-2.645 4.072-7.967 18.097-10.618 31.68l-.022.111-.084.077c-1.31 1.196-3.003 2.045-4.362 2.727-.273.137-.531.267-.765.39-1.257.656-2.407.99-3.417.99-1.413 0-2.517-.645-3.192-1.865-1.456-2.627-.598-7.455 2.085-11.74.879-1.404 2.348-2.311 3.742-2.311.724 0 1.347.255 1.755.716.427.484.598 1.165.497 1.968l-.108.859-.513-.697c-.44-.596-1.03-.925-1.662-.925-.969 0-2.106.823-2.317 2.63-.022.538.167 1.034.547 1.432.542.568 1.44.907 2.401.907 1.895 0 4.147-1.295 4.26-4.941.05-1.636-.403-2.96-1.348-3.934-1.019-1.051-2.595-1.63-4.438-1.63-2.912 0-6.073 1.402-8.455 3.748-2.002 1.97-4.411 5.528-4.523 11.278l-.001.058-.02.056c-.055.148-1.39 3.646-4.645 4.277a2.03 2.03 0 0 1-.379.038c-.479 0-.89-.201-1.19-.582-1.224-1.552-.51-5.926.304-9.323.657-3.022.934-4.052 1.255-5.243.24-.893.512-1.904.995-3.948.417-1.767 1.574-6.047 2.693-10.187 1.093-4.043 2.125-7.863 2.22-8.43.175-1.06-.493-1.955-1.664-2.23-1.514-.35-2.766-.225-3.996.375-1.506.734-2.094 2.301-2.322 3.487a345.821 345.821 0 0 1-2.392 9.084c-.749 2.723-1.395 5.076-2.223 8.684-.058.246-.126.547-.205.897-1.793 7.95-4.374 17.077-8.438 17.078-.098 0-.197-.005-.294-.016-.836-.094-1.473-.44-1.892-1.028-.869-1.218-.852-3.462.056-7.502.834-3.248 1.677-6.17 2.491-8.995 1.001-3.468 1.946-6.745 2.694-10.027.946-3.604.452-7.12-1.32-9.418-1.291-1.674-3.16-2.558-5.408-2.558-1.44 0-3.025.362-4.708 1.076C.892 3.718-.412 8.303.11 10.87c.147.725.57 1.943 1.747 1.943 1.242-.015 1.374-1.135 1.435-2.843.011-.326.022-.635.049-.924l.004-.028C3.733 6.81 4.94 5.544 6.657 5.544c.07 0 .141.002.213.006l.066.01c2.658.692 2.634 2.723 1.963 6.873l-.01.042c-.168.576-.345 1.173-.528 1.79-1.435 4.859-3.222 10.905-4.927 18.54-1.144 5.19-.786 8.989 1.065 11.293 1.535 1.91 3.729 2.31 5.298 2.31 1.246 0 2.527-.254 3.608-.716 2.317-.993 3.374-1.89 5.062-5.236l.441-.874.206.957c.796 3.69 2.799 5.723 5.64 5.723 2.843 0 6.156-2.01 8.647-5.248l.418-.544.188.66c.807 2.832 3.426 4.622 5.595 4.926.644.124 1.29.185 1.938.185 4.996 0 9.34-3.608 10.975-5.16l.484-.46.097.66c.613 4.182 3.486 5.06 5.789 5.06 3.617 0 8.17-2.314 10.15-5.16l.353-.507.247.567c1.794 4.103 4.13 4.965 5.772 4.965 2.313 0 4.9-1.616 6.913-5.336l-.003.439c-.015 1.752.434 3.14 1.3 4.013.693.698 1.655 1.068 2.781 1.068 1.1 0 2.329-.35 3.554-1.01 2.428-1.219 2.903-1.63 5.902-4.488.868-.878 1.1-2.101.82-2.774z" fill="#2D68C4" mask="url(#b)"/></g><path d="M98.676 22.182v-.499h.333c.171 0 .355.035.355.236 0 .25-.187.263-.394.263h-.294zm.944-.248c0-.317-.19-.46-.572-.46h-.618v1.62h.246v-.702h.283l.429.702h.273l-.462-.713c.239-.03.42-.157.42-.447zm-.647 1.52c-.641 0-1.144-.498-1.144-1.175 0-.662.503-1.165 1.144-1.165.635 0 1.136.503 1.136 1.165 0 .677-.5 1.176-1.136 1.176zm0-2.574c-.773 0-1.426.594-1.426 1.399 0 .815.653 1.41 1.426 1.41.765 0 1.42-.595 1.42-1.41 0-.805-.655-1.399-1.42-1.399z" fill="#2D68C4"/></g></svg>